<svg xmlns:x="http://ns.adobe.com/Extensibility/1.0/" xmlns:i="http://ns.adobe.com/AdobeIllustrator/10.0/" xmlns:graph="http://ns.adobe.com/Graphs/1.0/" xmlns="http://www.w3.org/2000/svg" xmlns:xlink="http://www.w3.org/1999/xlink" version="1.1" id="Layer_2" x="0px" y="0px" viewBox="0 0 1080 1080" enable-background="new 0 0 1080 1080" xml:space="preserve">

	<g i:extraneous="self">
		
		<g>
			<path fill="#2A94F4" d="M178.85,940.738c4.8-86.4-59.2-202.946-124.799-208.673c-24,50.273,17.404,183.28,78.51,207.62     S178.85,940.738,178.85,940.738z"/>
			<g>
				<path fill="#CCE9FF" d="M140.962,920.609c-0.312-6.489-1.56-13.349-3.063-20.105c-1.523-6.778-3.361-13.542-5.348-20.271      c-3.984-13.464-8.593-26.8-13.574-39.997c-4.993-13.195-10.375-26.259-16.264-39.096c-2.961-6.41-6.051-12.763-9.402-18.979      c-1.702-3.09-3.423-6.177-5.329-9.147c-1.893-2.972-3.87-5.925-6.372-8.439c2.649,2.365,4.814,5.217,6.889,8.088      c2.091,2.872,4,5.867,5.893,8.871c3.731,6.041,7.208,12.235,10.559,18.493c6.67,12.534,12.845,25.331,18.648,38.303      c5.792,12.98,11.226,26.132,16.077,39.564c2.422,6.719,4.704,13.505,6.699,20.439c1.968,6.954,3.737,13.982,4.564,21.613      L140.962,920.609z"/>
			</g>
		</g>
		<g>
			<path fill="#0E538C" d="M210.15,923.25c0,0-1.24,3.42-6.59,4.49c-1.08,0.22-2.33,0.34-3.77,0.31     c-5.92-0.09-15.09-2.62-29.16-10.9c-34.39-20.26-35.04-102.69-15.99-130.61C193.45,796.05,221.03,871.88,210.15,923.25z"/>
			<g>
				<path fill="#0E538C" d="M203.56,927.74c-1.08,0.22-2.33,0.34-3.77,0.31c-0.02-0.23-0.05-0.45-0.07-0.68      c-1.26-11.52-3.15-23.01-5.45-34.41c-2.29-11.41-5.01-22.74-8.25-33.92c-1.63-5.59-3.4-11.15-5.44-16.6      c-0.53-1.35-1.03-2.72-1.6-4.06l-0.84-2.02l-0.9-1.98c-1.25-2.62-2.55-5.25-4.3-7.59c1.83,2.28,3.23,4.86,4.58,7.45l0.98,1.96      l0.91,1.99c0.62,1.33,1.17,2.68,1.75,4.02c2.24,5.4,4.22,10.91,6.05,16.45c3.65,11.11,6.79,22.38,9.51,33.76      c2.72,11.38,5.02,22.86,6.72,34.48C203.48,927.18,203.52,927.46,203.56,927.74z"/>
			</g>
		</g>
		<g>
			<path fill="#51AEF4" d="M367.967,923.843c0,0-1.087,2.998-5.776,3.935c-0.947,0.193-2.042,0.298-3.304,0.272     c-5.189-0.079-13.226-2.296-25.558-9.554c-30.142-17.757-30.712-90.006-14.015-114.477     C353.33,812.355,377.503,878.819,367.967,923.843z"/>
			<g>
				<path opacity="0.5" fill="#51AEF4" d="M362.191,927.779c-0.947,0.193-2.042,0.298-3.304,0.272      c-0.017-0.202-0.044-0.394-0.061-0.596c-1.104-10.097-2.761-20.168-4.777-30.16c-2.007-10.001-4.391-19.931-7.231-29.73      c-1.429-4.899-2.98-9.773-4.768-14.55c-0.465-1.183-0.903-2.384-1.402-3.558l-0.736-1.771l-0.789-1.735      c-1.096-2.296-2.235-4.602-3.769-6.653c1.604,1.998,2.831,4.26,4.014,6.53l0.859,1.718l0.798,1.744      c0.543,1.166,1.026,2.349,1.534,3.523c1.963,4.733,3.699,9.562,5.303,14.418c3.199,9.738,5.951,19.616,8.335,29.59      c2.384,9.974,4.4,20.036,5.89,30.221C362.121,927.288,362.156,927.533,362.191,927.779z"/>
			</g>
		</g>
		
		
		
		<g>
			<path fill="#0E538C" d="M345.897,924.582c1.467-28.238,26.341-63.861,47.854-63.424c6.037,17.174-12.073,58.936-32.779,64.703     C340.267,931.629,345.897,924.582,345.897,924.582z"/>
			
		</g>
		
		
		<g>
			<polygon fill="#DF9481" points="454.777,313.65 577.01,234.317 590.042,196.667 589.236,238.664 485.816,328.663    "/>
			<g>
				<polygon fill="#FFBE55" points="408.254,341.559 485.645,293.599 501.3,351.002 413.892,408.406     "/>
				<polygon opacity="0.2" fill="#FFBE55" points="408.254,341.559 485.645,293.599 501.3,351.002 413.892,408.406     "/>
			</g>
			<polygon fill="#FFBE55" points="250.66,699.533 218.162,764.423 213.564,700.531 228.899,693.398 212.095,690.864      212.152,681.751 250.507,680.9    "/>
			<path fill="#093C59" d="M374.443,497.263c0,0,37.173,140.867,26.412,159.453s-152.25,49.181-152.25,49.181l-0.355-27.66     c0,0,98.888-45.819,110.627-42.884c-23.478-21.521-46.712-131.243-46.712-131.243L374.443,497.263z"/>
			<polygon fill="#FFBE55" points="227.644,814.336 255.494,881.352 204.145,843.057 208.773,826.79 195.87,837.848      189.011,831.847 213.445,802.269    "/>
			<path fill="#0B4870" d="M367.436,498.525c0,0-82.532,195.796-131.925,328.265c-30.328,0-26.591-29.481-26.591-29.481     s59.872-277.744,93.965-318.695C355.321,482.183,367.436,498.525,367.436,498.525z"/>
			<polygon fill="#DF9481" points="312.165,408.406 212.385,500.672 158.527,510.372 211.962,513.904 318.14,442.363    "/>
			<ellipse fill="#0B4870" cx="402.023" cy="275.059" rx="41.171" ry="43.474"/>
			<path fill="#DF9481" d="M440.912,245.988c0,0,11.039,68.884-1.767,82.674c-38.851-2.649-48.563-17.334-58.275-37.642     C371.156,270.712,393.231,229.212,440.912,245.988z"/>
			<path fill="#0B4870" d="M450.635,245.93c-1.979,15.095-60.511,53.611-73.344,46.889     C375.458,265.32,390.801,215.296,450.635,245.93z"/>
			<path fill="#DF9481" d="M386.797,294.305c-4.889-4.991-9.61-5.571-10.391,0.827c-0.706,5.786,6.877,14.286,12.377,12.945     S386.797,294.305,386.797,294.305z"/>
			<g>
				<path fill="#0B4870" d="M388.82,238.544c-13.292-18.293-36.599-28.793-59.107-26.629c-7.626,0.733-15.338,2.933-21.272,7.778      c-5.934,4.845-9.778,12.686-8.429,20.228c2.218,12.406,17.138,21.039,15.728,33.563c-0.618,5.489-4.502,10.182-9.166,13.142      c-4.664,2.96-10.081,4.46-15.408,5.921c-11.969,3.282-24.311,6.748-33.977,14.532c-9.666,7.785-16.002,21.121-11.873,32.825      c2.684,7.607,9.496,14.498,7.851,22.395c-1.696,8.139-11.357,11.873-15.526,19.066c-4.084,7.045-1.951,16.513,3.469,22.591      c5.42,6.078,13.451,9.229,21.458,10.715c12.909,2.396,28.514-0.331,34.906-11.799c4.452-7.988,3.128-18.007-0.099-26.564      c-3.227-8.557-8.187-16.414-10.973-25.124c-2.786-8.71-3.037-19.012,2.582-26.227c5.897-7.571,16.268-9.598,25.636-11.681      s19.746-5.673,23.645-14.443c3.523-7.925,0.708-18.214,6.172-24.949c4.916-6.059,13.911-6.126,21.322-8.568      c10.2-3.361,18.338-12.355,20.666-22.839L388.82,238.544z"/>
			</g>
			<polygon fill="#DF9481" points="413.892,316.698 411.977,339.871 427.688,377.712 390.801,340.907 388.82,305.407    "/>
			<path fill="#FFBE55" d="M434.773,421.387l-26.526,27.031l-24.671,65.485l-71.006-25.177l-24.025-8.528l23.617-20.653     c0,0-24.418-25.444-29.181-44.073c44.509-37.709,78.678-67.986,107.816-74.561h7.769l29.125,36.796L434.773,421.387z"/>
			<polygon opacity="0.5" fill="#FFBE55" points="358.877,418.353 312.57,488.727 288.545,480.199 312.163,459.546    "/>
		</g>
        
		
			<line fill="none" stroke="#FFBE55" stroke-width="2" stroke-linecap="round" stroke-miterlimit="10" x1="574.727" y1="205.465" x2="554.399" y2="184.162"/>
		
			
		
			<line fill="none" stroke="#FFBE55" stroke-width="2" stroke-linecap="round" stroke-miterlimit="10" x1="611.221" y1="172.862" x2="612.557" y2="171.463"/>
		
			
		
			<line fill="none" stroke="#FFBE55" stroke-width="2" stroke-linecap="round" stroke-miterlimit="10" x1="581.838" y1="182.114" x2="575.341" y2="175.305"/>
		<path fill="#FFBE55" d="M558.145,153.416c-19.74,0-35.73,16-35.73,35.74c0-19.74-16-35.74-35.74-35.74    c19.74,0,35.74-16,35.74-35.74C522.415,137.416,538.405,153.416,558.145,153.416z"/>
		<path fill="#FFBE55" d="M637.462,299.333c-9.887,0-17.895,8.014-17.895,17.9c0-9.887-8.014-17.9-17.9-17.9    c9.887,0,17.9-8.014,17.9-17.9C619.567,291.319,627.576,299.333,637.462,299.333z"/>
	</g>

</svg>