<svg xmlns:x="http://ns.adobe.com/Extensibility/1.0/" xmlns:i="http://ns.adobe.com/AdobeIllustrator/10.0/" xmlns:graph="http://ns.adobe.com/Graphs/1.0/" xmlns="http://www.w3.org/2000/svg" xmlns:xlink="http://www.w3.org/1999/xlink" version="1.1" id="Layer_2" x="0px" y="0px" viewBox="0 0 1080 1080" enable-background="new 0 0 1080 1080" xml:space="preserve">

	<g i:extraneous="self">
		
		
		
		
		<g>
			<path fill="#0E538C" d="M899.311,940.738c-4.8-86.4,59.2-202.946,124.799-208.673c24,50.273-17.404,183.28-78.51,207.62     S899.311,940.738,899.311,940.738z"/>
			<g>
				<path fill="#0E538C" d="M937.199,920.609c0.312-6.489,1.56-13.349,3.063-20.105c1.523-6.778,3.361-13.542,5.348-20.271      c3.984-13.464,8.593-26.8,13.574-39.997c4.993-13.195,10.375-26.259,16.264-39.096c2.961-6.41,6.051-12.763,9.401-18.979      c1.702-3.09,3.423-6.177,5.329-9.147c1.893-2.972,3.87-5.925,6.372-8.439c-2.649,2.365-4.814,5.217-6.889,8.088      c-2.091,2.872-4,5.867-5.893,8.871c-3.731,6.041-7.208,12.235-10.559,18.493c-6.67,12.534-12.845,25.331-18.648,38.303      c-5.792,12.98-11.226,26.132-16.077,39.564c-2.422,6.719-4.704,13.505-6.699,20.439c-1.968,6.954-3.737,13.982-4.564,21.613      L937.199,920.609z"/>
			</g>
		</g>
		<g>
			<path fill="#0E538C" d="M772.014,943.962c3.259-58.667-40.198-137.805-84.741-141.693     c-16.296,34.137,11.817,124.451,53.31,140.978C782.075,959.774,772.014,943.962,772.014,943.962z"/>
			<g>
				<path fill="#0E538C" d="M746.287,930.294c-0.212-4.406-1.059-9.065-2.08-13.651c-1.034-4.602-2.282-9.195-3.632-13.765      c-2.705-9.142-5.835-18.198-9.217-27.159c-3.39-8.96-7.045-17.831-11.044-26.547c-2.01-4.352-4.109-8.666-6.384-12.887      c-1.156-2.098-2.324-4.195-3.618-6.211c-1.286-2.018-2.628-4.023-4.327-5.73c1.799,1.606,3.269,3.543,4.678,5.492      c1.42,1.95,2.716,3.984,4.001,6.023c2.533,4.102,4.894,8.307,7.17,12.557c4.529,8.511,8.722,17.2,12.663,26.009      c3.933,8.813,7.623,17.744,10.917,26.865c1.645,4.562,3.194,9.17,4.548,13.878c1.336,4.722,2.537,9.494,3.099,14.676      L746.287,930.294z"/>
			</g>
		</g>
		<g>
			<path fill="#51AEF4" d="M753.412,924.582c1.467-28.238,26.341-63.861,47.854-63.424c6.036,17.174-12.073,58.936-32.779,64.703     C747.782,931.629,753.412,924.582,753.412,924.582z"/>
			<g>
				<path fill="#2797E2" d="M766.426,919.37c0.329-2.097,0.974-4.282,1.699-6.425c0.732-2.149,1.566-4.282,2.448-6.398      c1.766-4.235,3.73-8.406,5.811-12.519c2.084-4.112,4.29-8.168,6.653-12.132c1.186-1.979,2.413-3.935,3.719-5.837      c0.661-0.944,1.328-1.887,2.052-2.785c0.719-0.899,1.465-1.79,2.366-2.518c-0.943,0.675-1.747,1.526-2.521,2.386      c-0.78,0.86-1.505,1.766-2.225,2.676c-1.424,1.832-2.77,3.722-4.078,5.638c-2.606,3.839-5.06,7.78-7.4,11.791      c-2.336,4.014-4.562,8.097-6.609,12.291c-1.022,2.098-2.001,4.223-2.892,6.406c-0.883,2.19-1.704,4.412-2.24,6.862      L766.426,919.37z"/>
			</g>
		</g>
		
		<g>
			<path fill="#2A94F4" d="M868.011,923.25c0,0,1.24,3.42,6.59,4.49c1.08,0.22,2.33,0.34,3.77,0.31c5.92-0.09,15.09-2.62,29.16-10.9     c34.39-20.26,35.04-102.69,15.99-130.61C884.711,796.05,857.131,871.88,868.011,923.25z"/>
			<g>
				<path fill="#2A94F4" d="M874.601,927.74c1.08,0.22,2.33,0.34,3.77,0.31c0.02-0.23,0.05-0.45,0.07-0.68      c1.26-11.52,3.15-23.01,5.45-34.41c2.29-11.41,5.01-22.74,8.25-33.92c1.63-5.59,3.4-11.15,5.44-16.6      c0.53-1.35,1.03-2.72,1.6-4.06l0.84-2.02l0.9-1.98c1.25-2.62,2.55-5.25,4.3-7.59c-1.83,2.28-3.23,4.86-4.58,7.45l-0.98,1.96      l-0.91,1.99c-0.62,1.33-1.17,2.68-1.75,4.02c-2.24,5.4-4.22,10.91-6.05,16.45c-3.65,11.11-6.79,22.38-9.51,33.76      c-2.72,11.38-5.02,22.86-6.72,34.48C874.681,927.18,874.641,927.46,874.601,927.74z"/>
			</g>
		</g>
        
		<g><!--people-2-->
			<polygon fill="#FFBE55" points="872.645,699.585 924.492,768.068 905.24,660.882 865.273,668.329    "/>
			<path fill="#B1D9F2" d="M747.371,524.089c-15.293,45.517-33.644,110.076-10.158,146.757     c23.486,36.681,139.793,30.924,139.793,30.924l-4.592-33.848c0,0-80.581-16.441-77.081-26.92     c3.501-10.48,23.705-86.098,20.648-96.27c-3.057-10.172-7.237-40.811-7.237-40.811L747.371,524.089z"/>
			<polygon fill="#FFBE55" points="890.247,833.027 829.924,894.175 933.232,859.724 920.121,821.241    "/>
			<path fill="#CCE9FF" d="M753.146,515.491c0.816,16.217,131.437,319.848,131.437,319.848l38.308-9.185     c0,0-69.361-278.836-76.467-315.357S753.146,515.491,753.146,515.491z"/>
			<polygon fill="#FFE3CA" points="896.816,420.602 907.689,434.193 933.904,525.598 940.997,564.127 922.201,558.678      918.391,533.875 913.51,543.66 908.15,544.651 914.791,523.614 884.656,448.731 865.619,435.983    "/>
			<polygon fill="#FFE3CA" points="731.657,307.29 605.591,234.201 590.042,196.667 589.236,238.664 701.412,323.844    "/>
			<polygon fill="#0B3E5B" points="775.721,331.327 715.961,288.004 684.403,322.062 756.046,384.117    "/>
			<path fill="#0B4870" d="M775.721,331.327c-2.396,2.135-25.44,19.68-36.053,39.704c-10.613,20.023,0.746,161.359,0.746,161.359     l123.442-6.212l-24.64-104.41l24.599,26.564l42.777-35.943c0,0-45.511-62.105-55.165-68.566     C833.325,331.709,775.721,331.327,775.721,331.327z"/>
			<path fill="#0B4870" d="M778.847,232.995c9.867,0.732,58.413,8.495,18.245,67.247     C788.655,315.718,778.847,232.995,778.847,232.995z"/>
			<path fill="#FFE3CA" d="M736.651,246.784c0,0-6.155,61.788,7.329,74.918c9.667-1.15,24.649-1.461,31.063-3.853     c19.241-7.176,16.347-20.532,23.85-29.639C813.206,270.835,783.429,227.632,736.651,246.784z"/>
			<path fill="#FFE3CA" d="M772.644,308.28l2.018,23.934l-4.146,13.677c-1.87,5.231,4.813,9.235,8.544,5.118l20.375-18.608     l-1.543-44.141L772.644,308.28z"/>
			<g>
				<path fill="#0B4870" d="M758.423,263.883c-4.67-0.252-9.262,0.832-13.853,1.726c-4.591,0.894-9.7,1.159-13.591-1.435      c-5.337-3.557-6.353-10.959-10.311-16.006c-2.817-3.592-6.986-5.815-10.481-8.751c-0.514-0.432-1.03-0.902-1.289-1.521      c-0.585-1.4,0.331-2.953,1.295-4.124c3.433-4.167,8.121-7.363,13.361-8.661c5.24-1.299,11.016-0.614,15.623,2.202      c4.2,2.568,7.489,6.838,12.262,8.042c7.203,1.817,13.969-4.039,21.275-5.383c2.54-0.467,5.181-0.375,7.682,0.267      c1.591,0.409,3.147,1.051,4.422,2.085c3.505,2.842,4.294,8.046,7.663,11.048c3.509,3.127,9.015,3.163,12.494,6.323      c2.427,2.204,3.43,5.53,4.296,8.692c1.082,3.955,2.035,8.472-0.181,11.922c-0.966,1.504-3.438,14.878-4.964,15.809      c-8.777,5.358-17.927-5.279-26.294-9.421c-3.026-1.498-5.454-3.931-7.346-6.728      C768.918,267.646,765.446,264.262,758.423,263.883z"/>
			</g>
			<polygon fill="#0B4870" points="788.312,269.72 788.542,292.088 793.001,291.864 800.249,269.119    "/>
			<path fill="#FFE3CA" d="M794.436,272.52c8.757-6.657,11.555-4.293,10.814,5.682c-0.741,9.975-12.249,13.662-12.249,13.662     L794.436,272.52z"/>
			
				<ellipse transform="matrix(0.9987 -0.0503 0.0503 0.9987 -19.7351 38.4404)" fill="#FFBE55" cx="754.453" cy="411.619" rx="12.726" ry="27.387"/>
		</g><!--people-2-->
		
			<line fill="none" stroke="#FFBE55" stroke-width="2" stroke-linecap="round" stroke-miterlimit="10" x1="574.727" y1="205.465" x2="554.399" y2="184.162"/>
		
			
		
			<line fill="none" stroke="#FFBE55" stroke-width="2" stroke-linecap="round" stroke-miterlimit="10" x1="611.221" y1="172.862" x2="612.557" y2="171.463"/>
		
			
		
			<line fill="none" stroke="#FFBE55" stroke-width="2" stroke-linecap="round" stroke-miterlimit="10" x1="581.838" y1="182.114" x2="575.341" y2="175.305"/>
		<path fill="#FFBE55" d="M558.145,153.416c-19.74,0-35.73,16-35.73,35.74c0-19.74-16-35.74-35.74-35.74    c19.74,0,35.74-16,35.74-35.74C522.415,137.416,538.405,153.416,558.145,153.416z"/>
		<path fill="#FFBE55" d="M637.462,299.333c-9.887,0-17.895,8.014-17.895,17.9c0-9.887-8.014-17.9-17.9-17.9    c9.887,0,17.9-8.014,17.9-17.9C619.567,291.319,627.576,299.333,637.462,299.333z"/>
	</g>

</svg>